<?xml version="1.0" standalone="no"?>
<!DOCTYPE svg PUBLIC "-//W3C//DTD SVG 20010904//EN"
 "http://www.w3.org/TR/2001/REC-SVG-20010904/DTD/svg10.dtd">
<svg version="1.0" xmlns="http://www.w3.org/2000/svg"
 width="1396.000000pt" height="1398.000000pt" viewBox="0 0 1396.000000 1398.000000"
 preserveAspectRatio="xMidYMid meet">

<g transform="translate(0.000000,1398.000000) scale(0.100000,-0.100000)"
fill="#000000" stroke="none">
<path d="M5715 13974 c-302 -2 -1011 -8 -1575 -13 -935 -9 -1038 -12 -1175
-30 -311 -42 -612 -104 -800 -166 -127 -42 -388 -158 -530 -236 -242 -133
-400 -254 -621 -474 -277 -275 -356 -377 -588 -758 -91 -149 -119 -213 -180
-416 -123 -409 -190 -770 -206 -1111 -39 -838 -39 -6568 0 -7527 23 -550 100
-892 300 -1335 157 -347 374 -661 645 -934 312 -314 630 -524 1030 -679 302
-117 563 -169 995 -200 930 -65 1763 -89 3150 -89 1042 1 1358 5 2965 39 380
8 922 19 1205 25 538 11 670 18 883 50 357 54 644 144 962 300 315 154 550
324 821 595 219 218 340 373 479 610 258 443 392 951 445 1690 16 215 32 3553
26 5280 -5 1481 -14 2055 -36 2324 -43 525 -158 967 -347 1331 -226 438 -667
924 -1088 1202 -364 239 -647 342 -1207 437 -306 53 -428 61 -1058 71 -620 10
-3570 19 -4495 14z m1456 -3070 c418 -58 786 -234 1072 -513 70 -68 131 -121
135 -117 4 4 10 89 13 189 7 233 22 272 126 334 39 22 57 25 215 33 250 12
835 -5 888 -26 56 -23 115 -93 132 -157 19 -74 19 -4371 -1 -4612 -49 -621
-169 -1099 -386 -1540 -307 -625 -771 -1035 -1396 -1233 -385 -123 -746 -176
-1189 -176 -443 1 -767 46 -1205 171 -292 83 -544 183 -886 353 -367 182 -442
255 -441 428 1 94 3 101 145 397 199 417 273 523 423 602 l59 31 110 -65 c371
-217 835 -411 1170 -491 506 -121 986 -82 1368 110 169 84 296 177 417 304
211 221 304 440 355 837 17 137 20 253 5 262 -6 4 -40 -20 -76 -52 -161 -142
-295 -235 -462 -318 -460 -229 -1022 -271 -1600 -120 -369 97 -774 301 -1067
538 -248 200 -481 508 -626 827 -176 384 -259 784 -259 1235 1 702 224 1318
666 1834 454 531 1092 868 1784 944 100 11 408 6 511 -9z"/>
<path d="M6830 9564 c-102 -12 -235 -40 -313 -65 -435 -142 -771 -544 -879
-1053 -28 -135 -30 -394 -4 -541 86 -478 349 -865 716 -1054 313 -161 737
-184 1101 -60 92 31 243 111 320 169 143 107 308 309 395 482 192 380 226 825
95 1218 -151 449 -532 784 -1001 880 -101 21 -344 34 -430 24z"/>
</g>
</svg>
